<svg xmlns="http://www.w3.org/2000/svg" version="1.1" xmlns:xlink="http://www.w3.org/1999/xlink" width="512" height="512" x="0" y="0" viewBox="0 0 512 512" style="enable-background:new 0 0 512 512" xml:space="preserve" class=""><g><path fill="#fe6a16" d="M105.824 463.347C41.701 416.823 0 341.281 0 256 0 114.615 114.615 0 256 0s256 114.615 256 256c0 85.313-41.732 160.879-105.895 207.398z" opacity="1" data-original="#fe6a16" class=""></path><path fill="#f24500" d="m49.651 227.275 236.102 236.102 120.352.021C470.268 416.879 512 341.313 512 256l-.001-.528-88.305-88.527-2.682-2.46-74.709 4.7-22.234-22.234-140.897 32.499z" opacity="1" data-original="#f24500" class=""></path><path fill="#333940" d="M430.059 174.989c-10.114-16.377-29.677-24.307-48.34-19.594l-21.148 5.341 1.316 21.533 7.391 19.013 4.943.329 24.983 40.454 63.145-14.791z" opacity="1" data-original="#333940"></path><path fill="#fdba12" d="m319.919 171.002 6.933 27.459 42.425 2.822-8.706-40.547z" opacity="1" data-original="#fdba12"></path><path fill="#555a66" d="M81.941 174.989c10.114-16.377 29.677-24.307 48.34-19.594l21.148 5.341-1.316 21.533-7.391 19.013-4.943.329-24.983 40.454-63.145-14.791z" opacity="1" data-original="#555a66"></path><path fill="#ffce00" d="m192.081 171.002-6.933 27.459-42.425 2.822 8.706-40.547z" opacity="1" data-original="#ffce00"></path><path fill="#ffbeaa" d="M255.994 431.47c23.889 0 45.066-24.313 58.188-42.206l-13.627-4.86c-9.63-3.434-16.143-13.216-16.143-24.248V326.93H228.07v33.226c0 11.031-6.512 20.814-16.143 24.248l-14.019 4.999c13.13 17.814 34.259 42.067 58.086 42.067z" opacity="1" data-original="#ffbeaa" class=""></path><path fill="#faa68e" d="M300.555 384.405c-9.631-3.434-16.143-13.216-16.143-24.248v-33.226H256l-.006 91.843.006 12.696h-.006c23.889 0 45.066-24.313 58.188-42.206z" opacity="1" data-original="#faa68e"></path><circle cx="164.749" cy="252.81" r="33.831" fill="#ffbeaa" transform="rotate(-22.48 164.745 252.55)" opacity="1" data-original="#ffbeaa" class=""></circle><circle cx="347.251" cy="252.81" r="33.831" fill="#faa68e" transform="rotate(-22.48 347.112 252.463)" opacity="1" data-original="#faa68e"></circle><path fill="#ffdecf" d="M256 364.961c-53.166 0-96.265-43.099-96.265-96.265v-33.241c0-53.166 43.099-96.265 96.265-96.265 53.166 0 96.265 43.099 96.265 96.265v33.241c0 53.166-43.099 96.265-96.265 96.265z" opacity="1" data-original="#ffdecf"></path><path fill="#ffcdbe" d="M256 139.19c-.005 0-.009.001 0 0v225.771c-.009 0-.005 0 0 0 53.166 0 96.265-43.099 96.265-96.265v-33.241c0-53.165-43.099-96.265-96.265-96.265z" opacity="1" data-original="#ffcdbe"></path><path fill="#707789" d="M256 118.756c-53.165 0-96.265 43.1-96.265 96.265v33.241c0 1.277.025 2.548.074 3.813.05-1.289.126-2.57.227-3.845C247.989 238.992 256 182.989 256 182.989s8.011 56.003 95.964 65.242c.1 1.275.176 2.557.227 3.845.049-1.265.074-2.536.074-3.813v-33.241c0-53.166-43.1-96.266-96.265-96.266z" opacity="1" data-original="#707789" class=""></path><path fill="#555a66" d="M256 182.989s8.011 56.003 95.964 65.242c.1 1.275.176 2.557.227 3.845.049-1.265.074-2.536.074-3.813v-33.241c0-53.166-43.099-96.265-96.265-96.265h-.014z" opacity="1" data-original="#555a66"></path><path fill="#faa68e" d="m406.105 463.398-17.978-28.567c-8.962-14.105-21.422-25.074-35.862-31.676v90.128a255.51 255.51 0 0 0 53.84-29.885z" opacity="1" data-original="#faa68e"></path><path fill="#ffbeaa" d="m124.355 434.831-18.53 28.516a255.516 255.516 0 0 0 53.911 29.936v-89.906c-14.237 6.624-26.519 17.506-35.381 31.454z" opacity="1" data-original="#ffbeaa" class=""></path><path fill="#ffce00" d="M352.265 493.283v-90.128a78.22 78.22 0 0 0-6.257-2.541l-17.065-6.086-14.761-.454c-13.122 17.893-34.231 29.364-58.12 29.364-23.827 0-46.43-11.899-59.56-29.713l-13.342.938-16.686 5.951a78.21 78.21 0 0 0-6.739 2.763v89.906C189.453 505.352 221.95 512 256 512s66.547-6.648 96.265-18.717z" opacity="1" data-original="#ffce00"></path><path fill="#fdba12" d="m346.008 400.614-17.065-6.085-14.761-.454c-13.122 17.893-34.231 29.364-58.12 29.364l-.076-.001V512H256c34.05 0 66.547-6.648 96.265-18.717v-90.128a78.22 78.22 0 0 0-6.257-2.541z" opacity="1" data-original="#fdba12"></path><path fill="#ffffff" d="M256.012 433.112c29.682 0 56.086-16.785 72.939-38.58l-14.77-5.267c-13.122 17.893-34.298 29.51-58.188 29.51-23.827 0-44.955-11.557-58.085-29.37l-14.736 5.255c16.857 21.721 43.216 38.452 72.84 38.452z" opacity="1" data-original="#ffffff"></path><path fill="#e9edf5" d="M255.986 433.111h.027c29.682 0 56.086-16.786 72.939-38.581l-14.77-5.267c-13.122 17.893-34.299 29.509-58.188 29.509z" opacity="1" data-original="#e9edf5"></path></g></svg>
