<svg xmlns="http://www.w3.org/2000/svg" version="1.1" xmlns:xlink="http://www.w3.org/1999/xlink" width="512" height="512" x="0" y="0" viewBox="0 0 512 512" style="enable-background:new 0 0 512 512" xml:space="preserve" class=""><g><path fill="#ffe05c" d="M512 256c0 141.387-114.613 256-256 256S0 397.387 0 256 114.613 0 256 0s256 114.613 256 256zm0 0" opacity="1" data-original="#ffe05c" class=""></path><path fill="#151a1c" d="M272.785 108.941c-4.734 5.485-10.312 10.844-16.781 15.985l-98.012 59.738c-46.426 34.281-104.039-18.516-104.039-18.516s62.68 20.973 62.68-53.289C116.633 18.83 165.672 0 230.715 1.23c59.988 1.153 83.96 59.247 42.07 107.711zm0 0" opacity="1" data-original="#151a1c" class=""></path><path fill="#0c85a5" d="M382.121 449.578v29.246c-15.039 8.516-31.016 15.578-47.754 20.942a212.804 212.804 0 0 1-5.222 1.617 245.694 245.694 0 0 1-19.856 5.047 224.145 224.145 0 0 1-8.883 1.715C285.976 510.684 271.141 512 256 512s-29.977-1.316-44.406-3.844c-2.98-.511-5.938-1.09-8.883-1.715a255.68 255.68 0 0 1-22.988-5.996c-.418-.136-.836-.261-1.254-.398-.281-.086-.555-.18-.836-.274a253.82 253.82 0 0 1-47.754-20.949v-29.246c0-35.285 19.207-66.09 47.754-82.504a93.908 93.908 0 0 1 25.078-9.992 93.422 93.422 0 0 1 14.523-2.316c2.57-.211 5.16-.317 7.786-.317h61.953c7.324 0 14.449.817 21.293 2.383.343.086.691.156 1.023.242a94.186 94.186 0 0 1 25.078 10c28.535 16.426 47.754 47.227 47.754 82.504zm0 0" opacity="1" data-original="#0c85a5"></path><path fill="#1da2dd" d="M382.121 449.578v29.246C346.695 498.93 306 510.82 262.613 511.918c-2.203.05-4.398.082-6.613.082s-4.418-.031-6.613-.094c-24.672-.617-48.465-4.734-70.918-11.86v-50.468c0-52.539 42.601-95.129 95.148-95.129h13.356c52.554 0 95.148 42.59 95.148 95.13zm0 0" opacity="1" data-original="#1da2dd" class=""></path><path fill="#f2efea" d="M298.844 393.164c0 22.203-16.895 40.469-38.535 42.629-1.41.137-2.852.21-4.305.21-1.442 0-2.875-.073-4.285-.21-21.649-2.152-38.555-20.414-38.555-42.629 0-23.656 19.184-42.844 42.84-42.844s42.84 19.188 42.84 42.844zm0 0" opacity="1" data-original="#f2efea"></path><path fill="#d8d4ce" d="m255.992 393.395-42.828 23.8-13.031-60.601 26.613-15.676M255.992 393.395l42.828 23.8 13.032-60.601-26.614-15.676" opacity="1" data-original="#d8d4ce"></path><path fill="#eaa27f" d="M289.938 317.8v41.657c0 15.25-10.055 28.14-23.907 32.422a33.821 33.821 0 0 1-10.043 1.516c-18.742 0-33.937-15.192-33.937-33.938v-41.656zm0 0" opacity="1" data-original="#eaa27f"></path><path fill="#f6ba97" d="M289.938 356.82v2.637c0 15.25-10.055 28.14-23.907 32.422-12.492-3.84-21.89-14.707-23.625-28 2.266.137 4.547.207 6.836.207 6.422 0 12.719-.508 18.852-1.516a115.66 115.66 0 0 0 21.844-5.75zM161.352 249.535c0 15.711-11.477 28.742-26.508 31.16a31.64 31.64 0 0 1-5.055.403c-17.437 0-31.566-14.125-31.566-31.563s14.129-31.566 31.566-31.566c1.723 0 3.414.14 5.055.406 15.031 2.418 26.508 15.445 26.508 31.16zm0 0" opacity="1" data-original="#f6ba97"></path><path fill="#eaa27f" d="M161.352 249.535c0 15.711-11.477 28.742-26.508 31.16a117.374 117.374 0 0 1-4.188-31.16c0-10.785 1.457-21.234 4.188-31.16 15.031 2.418 26.508 15.445 26.508 31.16zm0 0" opacity="1" data-original="#eaa27f"></path><path fill="#eaa27f" d="M141.07 249.535c0 6.23-5.05 11.281-11.28 11.281-6.231 0-11.282-5.05-11.282-11.28 0-6.231 5.05-11.282 11.281-11.282 6.23 0 11.281 5.05 11.281 11.281zm0 0" opacity="1" data-original="#eaa27f"></path><path fill="#f6ba97" d="M350.637 249.535c0 15.711 11.48 28.742 26.511 31.16a31.64 31.64 0 0 0 5.055.403c17.438 0 31.567-14.125 31.567-31.563s-14.13-31.566-31.567-31.566c-1.723 0-3.414.14-5.055.406-15.03 2.418-26.511 15.445-26.511 31.16zm0 0" opacity="1" data-original="#f6ba97"></path><path fill="#eaa27f" d="M350.637 249.535c0 15.711 11.48 28.742 26.511 31.16a117.534 117.534 0 0 0 4.188-31.16c0-10.785-1.457-21.234-4.188-31.16-15.03 2.418-26.511 15.445-26.511 31.16zm0 0" opacity="1" data-original="#eaa27f"></path><path fill="#eaa27f" d="M393.484 249.535c0 6.23-5.05 11.281-11.28 11.281s-11.282-5.05-11.282-11.28c0-6.231 5.05-11.282 11.281-11.282s11.281 5.05 11.281 11.281zm0 0" opacity="1" data-original="#eaa27f"></path><path fill="#eaa27f" d="M373.438 188.04v44.722c0 58.441-42.692 106.922-98.594 115.918-.188.03-.387.062-.574.097-5.946.95-12.051 1.418-18.278 1.418-64.855 0-117.437-52.578-117.437-117.433v-44.723c0-13.656 2.332-26.781 6.636-38.977 16.059-45.703 59.614-78.468 110.801-78.468h.012c6.215 0 12.328.48 18.285 1.418 56.172 8.777 99.148 57.386 99.148 116.027zm0 0" opacity="1" data-original="#eaa27f"></path><path fill="#f6ba97" d="M373.438 188.04v44.722c0 58.441-42.696 106.925-98.598 115.922l-.574.093c-56.176-8.777-99.141-57.386-99.141-116.015v-44.723c0-58.64 42.977-107.246 99.16-116.023 56.176 8.777 99.152 57.382 99.152 116.023zm0 0" opacity="1" data-original="#f6ba97"></path><path fill="#eaa27f" d="M335.93 263.598c0 8.078-6.551 14.629-14.63 14.629s-14.628-6.551-14.628-14.63c0-8.081 6.55-14.628 14.629-14.628s14.629 6.547 14.629 14.629zM205.316 263.598c0 8.078-6.546 14.629-14.629 14.629-8.078 0-14.628-6.551-14.628-14.63 0-8.081 6.55-14.628 14.629-14.628 8.082 0 14.628 6.547 14.628 14.629zM319.063 222.844c0-10.774-8.731-19.504-19.504-19.504-10.774 0-19.508 8.73-19.508 19.504M231.945 222.844c0-10.774-8.73-19.504-19.504-19.504-10.773 0-19.507 8.73-19.507 19.504" opacity="1" data-original="#eaa27f"></path><path fill="#ffffff" d="M242.996 231.14c0 21.43-17.367 38.798-38.789 38.798a38.86 38.86 0 0 1-9.402-1.149c-16.887-4.2-29.395-19.457-29.395-37.648 0-18.18 12.508-33.438 29.395-37.637a38.668 38.668 0 0 1 9.402-1.149c21.422 0 38.79 17.364 38.79 38.786zM346.68 231.14c0 21.43-17.368 38.798-38.785 38.798-3.243 0-6.399-.399-9.407-1.149-16.875-4.2-29.383-19.457-29.383-37.648 0-18.18 12.508-33.438 29.383-37.637a38.676 38.676 0 0 1 9.407-1.149c21.418 0 38.785 17.364 38.785 38.786zm0 0" opacity="1" data-original="#ffffff"></path><path fill="#c1dce5" d="M224.188 231.14c0 18.192-12.508 33.45-29.383 37.65-16.887-4.2-29.395-19.458-29.395-37.65 0-18.18 12.508-33.437 29.395-37.636 16.875 4.2 29.382 19.457 29.382 37.637zM327.871 231.14c0 18.192-12.508 33.45-29.383 37.65-16.875-4.2-29.383-19.458-29.383-37.65 0-18.18 12.508-33.437 29.383-37.636 16.875 4.2 29.383 19.457 29.383 37.637zm0 0" opacity="1" data-original="#c1dce5"></path><g fill="#2f373b"><path d="M204.203 276.117c-24.797 0-44.969-20.176-44.969-44.972s20.172-44.97 44.97-44.97 44.968 20.173 44.968 44.97-20.172 44.972-44.969 44.972zm0-77.578c-17.98 0-32.605 14.625-32.605 32.606s14.629 32.605 32.605 32.605c17.98 0 32.606-14.625 32.606-32.605 0-17.977-14.625-32.606-32.606-32.606zM307.89 276.117c-24.796 0-44.972-20.176-44.972-44.972s20.176-44.97 44.973-44.97 44.968 20.173 44.968 44.97-20.171 44.972-44.968 44.972zm0-77.578c-17.98 0-32.605 14.625-32.605 32.606s14.625 32.605 32.606 32.605c17.976 0 32.605-14.625 32.605-32.605 0-17.977-14.625-32.606-32.605-32.606zm0 0" fill="#2f373b" opacity="1" data-original="#2f373b" class=""></path><path d="M242.992 224.96h26.11v12.368h-26.11zM373.438 204.746v13.426l-25.18 10.66-4.817-11.39zM168.098 217.441l-4.82 11.391-24.723-10.469v-13.418zM225.762 231.148c0 7.356-5.965 13.32-13.32 13.32-7.36 0-13.325-5.964-13.325-13.32 0-7.359 5.965-13.324 13.324-13.324 7.356 0 13.32 5.965 13.32 13.324zM312.883 231.148c0 7.356-5.965 13.32-13.324 13.32s-13.325-5.964-13.325-13.32c0-7.359 5.965-13.324 13.325-13.324s13.324 5.965 13.324 13.324zm0 0" fill="#2f373b" opacity="1" data-original="#2f373b" class=""></path></g><path fill="#eaa27f" d="M269.32 269.914h-26.644a5.746 5.746 0 1 1 0-11.492h26.644c3.176 0 5.746 2.57 5.746 5.746s-2.57 5.746-5.746 5.746zM256 306.273c-9.836 0-19.668-2.46-28.633-7.39a5.228 5.228 0 0 1-2.062-7.094 5.232 5.232 0 0 1 7.097-2.062c14.778 8.125 32.418 8.125 47.196 0a5.22 5.22 0 0 1 7.093 2.062 5.223 5.223 0 0 1-2.058 7.094c-8.965 4.926-18.801 7.39-28.633 7.39zm0 0" opacity="1" data-original="#eaa27f"></path><path fill="#ffffff" d="M223.047 228.797a5.707 5.707 0 0 1-5.711 5.707 5.71 5.71 0 1 1 5.71-5.707zM310.82 228.797a5.71 5.71 0 1 1-5.71-5.711 5.713 5.713 0 0 1 5.71 5.71zm0 0" opacity="1" data-original="#ffffff"></path><path fill="#2f373b" d="M385.66 163.855c0 61.493-12.215 68.903-12.215 68.903s-22.27-107.836-117.437-107.836h-.02c-30.05 0-52.832 10.754-69.937 25.465-37.07 31.883-47.5 82.37-47.5 82.37s-12.215-7.41-12.215-68.902c0-61.492 55.191-93.515 111.367-102.292 5.234-.829 10.598-1.278 16.043-1.38a60.824 60.824 0 0 1 2.242-.042h.02c6.219 0 12.332.48 18.285 1.422 56.176 8.777 111.367 40.8 111.367 102.292zm0 0" opacity="1" data-original="#2f373b" class=""></path><path fill="#2f373b" d="M293.84 57.238a205.586 205.586 0 0 0-19.55-4.031 117.143 117.143 0 0 0-18.286-1.422h-.024c-.75 0-1.492.008-2.234.04-5.445.105-10.805.554-16.05 1.382-21.755 3.395-43.364 10.281-61.68 21.02C164.973 39.309 192.652 4.28 230.715 1.23c38.933.743 62.707 25.489 63.125 56.008zM285.844 102.633c-18.563 12.77-23.262 38.168-10.492 56.734 12.765 18.563 38.164 23.262 56.73 10.492" opacity="1" data-original="#2f373b" class=""></path><path fill="#151a1c" d="M186.05 150.387c-37.07 31.883-47.5 82.37-47.5 82.37s-12.214-7.41-12.214-68.902c0-61.492 55.191-93.515 111.367-102.292 5.234-.829 10.598-1.278 16.043-1.38-44.96 1.688-70.82 53.958-67.695 90.204zm0 0" opacity="1" data-original="#151a1c" class=""></path></g></svg>
